<svg xmlns="http://www.w3.org/2000/svg" width="64" height="64" viewBox="0 0 64 64" role="img" aria-label="Micro Scaff">
  <defs>
    <linearGradient id="sky" x1="10" y1="4" x2="54" y2="48" gradientUnits="userSpaceOnUse">
      <stop offset="0" stop-color="#55c4ff" />
      <stop offset="0.55" stop-color="#26a8f2" />
      <stop offset="1" stop-color="#147ed0" />
    </linearGradient>
    <linearGradient id="grass" x1="8" y1="40" x2="56" y2="64" gradientUnits="userSpaceOnUse">
      <stop offset="0" stop-color="#a8dc4c" />
      <stop offset="1" stop-color="#4e9b2b" />
    </linearGradient>
    <filter id="softShadow" x="-20%" y="-20%" width="140%" height="140%">
      <feDropShadow dx="0" dy="2" stdDeviation="2" flood-color="#0f5f3a" flood-opacity="0.24" />
    </filter>
  </defs>

  <rect width="64" height="64" rx="15" fill="url(#sky)" />
  <path d="M8 21c6-7 12-6 17-2 4 3 7 2 11-1 4-4 10-5 17 0v10H8z" fill="#ffffff" opacity="0.86" />
  <path d="M1 44c9-7 18-8 28-5 7 2 13 1 19-3 6-3 11-2 16 2v26H1z" fill="url(#grass)" />
  <path d="M7 54c9-6 18-7 28-4 9 3 18 1 29-6v20H7z" fill="#7cc63f" opacity="0.7" />

  <g filter="url(#softShadow)">
    <path d="M18 38c5-4 13-5 19-2 5 3 7 8 5 12-8 0-18-1-28-4 0-2 1-4 4-6z" fill="#d34a36" />
    <circle cx="38" cy="34" r="8" fill="#ffd0ad" />
    <path d="M31 30c5-6 13-6 18 0-3-2-7-2-11-1-3 1-5 1-7 1z" fill="#2f1d14" />
  </g>

  <g transform="translate(47 46)">
    <ellipse cx="5" cy="0" rx="3" ry="5" fill="#ffffff" transform="rotate(0 5 0)" />
    <ellipse cx="5" cy="0" rx="3" ry="5" fill="#ffffff" transform="rotate(72 5 0)" />
    <ellipse cx="5" cy="0" rx="3" ry="5" fill="#f6b6cf" transform="rotate(144 5 0)" />
    <ellipse cx="5" cy="0" rx="3" ry="5" fill="#ffffff" transform="rotate(216 5 0)" />
    <ellipse cx="5" cy="0" rx="3" ry="5" fill="#f6b6cf" transform="rotate(288 5 0)" />
    <circle cx="5" cy="0" r="2" fill="#ffd76a" />
  </g>

  <path d="M13 29c6 7 12 13 18 18M9 39c7 2 15 4 25 5M53 33c-4 6-8 14-11 23" fill="none" stroke="#2f7f2a" stroke-width="2" stroke-linecap="round" opacity="0.5" />
</svg>
